<?xml version="1.0" encoding="utf-8"?>
<!-- Generator: Adobe Illustrator 15.0.2, SVG Export Plug-In . SVG Version: 6.00 Build 0)  -->
<!DOCTYPE svg PUBLIC "-//W3C//DTD SVG 1.1//EN" "http://www.w3.org/Graphics/SVG/1.1/DTD/svg11.dtd" [
	<!ENTITY ns_extend "http://ns.adobe.com/Extensibility/1.0/">
	<!ENTITY ns_ai "http://ns.adobe.com/AdobeIllustrator/10.0/">
	<!ENTITY ns_graphs "http://ns.adobe.com/Graphs/1.0/">
	<!ENTITY ns_vars "http://ns.adobe.com/Variables/1.0/">
	<!ENTITY ns_imrep "http://ns.adobe.com/ImageReplacement/1.0/">
	<!ENTITY ns_sfw "http://ns.adobe.com/SaveForWeb/1.0/">
	<!ENTITY ns_custom "http://ns.adobe.com/GenericCustomNamespace/1.0/">
	<!ENTITY ns_adobe_xpath "http://ns.adobe.com/XPath/1.0/">
]>
<svg version="1.1" id="Layer_1" xmlns:x="&ns_extend;" xmlns:i="&ns_ai;" xmlns:graph="&ns_graphs;"
	 xmlns="http://www.w3.org/2000/svg" xmlns:xlink="http://www.w3.org/1999/xlink" x="0px" y="0px" width="133.591px"
	 height="132.591px" viewBox="0 0 133.591 132.591" enable-background="new 0 0 133.591 132.591" xml:space="preserve">
<metadata>
	<sfw  xmlns="&ns_sfw;">
		<slices></slices>
		<sliceSourceBounds  x="433.509" y="-366.559" width="133.591" height="132.591" bottomLeftOrigin="true"></sliceSourceBounds>
	</sfw>
</metadata>
<g>
	<path fill="#FFFFFF" d="M0,65.797C0,28.906,29.906,0,66.796,0s66.795,28.906,66.795,65.797c0,39.556-29.904,66.794-66.795,66.794
		C29.906,132.591,0,105.353,0,65.797z"/>
	<path fill="#663399" d="M68.071,114.384c-6.745,0.001-13.915-2.813-21.313-8.363c-4.364-3.275-6.869-5.855-9.079-8.131
		c-1.914-1.973-3.722-3.834-6.579-5.979c-2.769-2.076-5.744-3.34-7.605-3.83c-0.978-0.257-1.76-0.989-2.081-1.947
		c-0.321-0.959-0.138-2.015,0.487-2.809c3.072-3.904,6.536-5.885,10.295-5.885c2.719,0,5.516,1.064,8.312,3.162
		c2.612,1.961,5.001,4.352,7.576,7.243L86.47,54.492c1.067-0.926,2.638-0.984,3.769-0.135l9.445,7.088
		c0.725,0.544,1.165,1.386,1.197,2.292c0.032,0.905-0.346,1.777-1.029,2.372L60.87,100.007c2.08,1.222,3.969,1.82,5.727,1.82
		c3.353,0,6.641-2.211,10.053-6.758c1.421-1.895,1.58-2.715,1.686-3.259c0.082-0.421,0.194-0.995,0.557-1.611
		c0.433-0.735,1.159-1.252,1.996-1.419c0.837-0.17,1.707,0.029,2.389,0.541c2.965,2.224,4.688,4.525,5.271,7.039
		c0.652,2.816-0.164,5.773-2.427,8.789C81.652,111.104,75.242,114.384,68.071,114.384z"/>
	<path fill="#663399" d="M47.203,76.866c-0.632,0-1.266-0.199-1.801-0.602l-9.445-7.088c-0.725-0.543-1.165-1.385-1.197-2.291
		c-0.032-0.905,0.346-1.777,1.029-2.372l38.981-33.899c-2.08-1.222-3.969-1.82-5.727-1.82c-3.353,0-6.641,2.21-10.053,6.757
		c-1.421,1.895-1.58,2.715-1.686,3.259c-0.082,0.42-0.194,0.996-0.557,1.611c-0.433,0.736-1.159,1.252-1.996,1.419
		c-0.836,0.169-1.705-0.029-2.389-0.542c-2.965-2.224-4.688-4.526-5.271-7.039c-0.652-2.816,0.164-5.773,2.427-8.789
		c4.468-5.955,10.878-9.235,18.049-9.235c6.745,0,13.916,2.814,21.313,8.364c4.364,3.275,6.869,5.855,9.079,8.131
		c1.914,1.972,3.722,3.833,6.579,5.978c2.769,2.077,5.744,3.341,7.605,3.83c0.978,0.257,1.76,0.99,2.081,1.948
		s0.138,2.014-0.487,2.809c-3.072,3.904-6.536,5.884-10.295,5.884c-2.719,0-5.516-1.064-8.312-3.162
		c-2.612-1.961-5.001-4.352-7.576-7.243L49.171,76.13C48.608,76.618,47.906,76.866,47.203,76.866z"/>
</g>
</svg>
