<?xml version="1.0" encoding="utf-8"?>
<!-- Generator: Adobe Illustrator 15.0.0, SVG Export Plug-In . SVG Version: 6.00 Build 0)  -->
<!DOCTYPE svg PUBLIC "-//W3C//DTD SVG 1.1//EN" "http://www.w3.org/Graphics/SVG/1.1/DTD/svg11.dtd">
<svg version="1.1" id="Layer_1" xmlns="http://www.w3.org/2000/svg" xmlns:xlink="http://www.w3.org/1999/xlink" x="0px" y="0px"
	 width="660.209px" height="914.062px" viewBox="0 0 660.209 914.062" enable-background="new 0 0 660.209 914.062"
	 xml:space="preserve">
<g id="Mark_1_">
	<g id="SnakeHead_2_">
		<g>
			<path fill="#98CA3E" d="M480.876,44.462c-16.392-7.184-32.71-12.154-48.855-15.139c-11.653-2.155-23.191-3.184-34.548-3.184
				c-57.685,0-110.933,26.514-153.756,66.656c-51.972,48.718-139.868,148.395-34.464,192.833
				c30.689,12.938,64.613,19.823,98.357,19.823c22.855,0,45.629-3.158,67.259-9.732c25.303-7.69,49.084-19.973,70.153-35.937
				c5.845-4.428,25.929-21.905,34.705-40.609c0,0,0.69,35.218-15.882,75.96c-16.014,39.365-62.804,91.745-62.804,91.745
				l107.294,91.591c0.387,0.43,0.764,0.867,1.15,1.297c0.097,0.107,0.197,0.212,0.295,0.318
				c14.686-22.088,27.932-45.433,38.98-70.161C602.699,289.202,628.493,109.157,480.876,44.462z"/>
			<path fill="#231F20" d="M600.905,132.879c-9.502-24.59-23.154-46.383-40.578-64.774c-18.66-19.699-41.862-35.708-68.958-47.583
				c-17.829-7.813-36.197-13.5-54.596-16.902C423.784,1.218,410.562,0,397.473,0c-31.491,0-62.842,6.924-93.179,20.578
				c-27.771,12.499-54.167,30.38-78.454,53.146c-26.102,24.467-47.053,48.208-62.273,70.562
				c-24.032,35.297-33.667,67.45-28.636,95.564c2.732,15.269,9.668,29.018,20.617,40.865c10.686,11.564,25.337,21.32,43.549,28.998
				c33.945,14.312,71.468,21.876,108.512,21.876c25.96,0,51.146-3.654,74.86-10.862c17.602-5.35,34.504-12.632,50.529-21.757
				c-14.845,27.025-41.1,58.904-51.452,70.493c-4.687,5.247-7.061,12.16-6.585,19.179c0.475,7.019,3.758,13.549,9.107,18.116
				l105.91,90.408c0.026,0.029,0.053,0.06,0.079,0.088c0.159,0.177,0.327,0.358,0.495,0.539c4.967,5.392,11.948,8.429,19.224,8.429
				c0.659,0,1.318-0.024,1.98-0.074c8.03-0.609,15.331-4.886,19.789-11.592c16.241-24.428,30.062-49.315,41.079-73.971
				c14.397-32.223,33.219-82.751,41.118-140.475C621.39,224.243,617.071,174.707,600.905,132.879z M508.335,478.469l-107.294-91.591
				c0,0,46.79-52.38,62.804-91.745c16.572-40.742,15.882-75.96,15.882-75.96c-8.776,18.704-28.86,36.182-34.705,40.609
				c-21.069,15.964-44.851,28.247-70.153,35.937c-21.63,6.574-44.403,9.732-67.259,9.732c-33.744,0-67.668-6.884-98.357-19.823
				c-105.404-44.438-17.507-144.115,34.464-192.833c42.824-40.142,96.072-66.656,153.756-66.656c11.356,0,22.895,1.029,34.548,3.184
				c16.146,2.985,32.464,7.955,48.855,15.139c147.617,64.695,121.823,244.74,67.885,365.46
				c-11.049,24.729-24.295,48.073-38.98,70.161c-0.098-0.106-0.198-0.211-0.295-0.318
				C509.099,479.336,508.722,478.898,508.335,478.469z"/>
		</g>
		<g>
			<path fill="#80B041" d="M454.897,410.577c2.577-6.283,5.068-12.601,7.451-18.96c10.6-28.28,19.318-57.458,23.987-87.337
				c1.743-15.527,2.226-31.203,0.729-46.759c-1.46-8.319-3.567-16.501-6.448-24.439c-0.439-0.91-0.908-1.804-1.37-2.701
				c-1.073,13.568-4.503,37.959-15.401,64.753c-16.014,39.365-62.804,91.745-62.804,91.745l46.679,39.848
				C450.169,421.368,452.566,415.988,454.897,410.577z"/>
		</g>
		<g>
			<circle fill="#231F20" cx="349.934" cy="212.767" r="36.112"/>
		</g>
	</g>
	<g id="Cookie_3_">
		<g display="none">
			<g display="inline">
				<g>
					<path fill="#FFFFFF" d="M325.776,675.081c-0.981,0-1.975-0.046-2.952-0.139l-42.164-3.967
						c-8.396-0.79-15.974-4.808-21.338-11.317c-5.363-6.509-7.859-14.716-7.029-23.109l3.568-36.092
						c1.6-16.184,15.075-28.389,31.344-28.389c5.706,0,11.327,1.577,16.258,4.559l44.542,26.941
						c13.635,8.246,18.954,25.409,12.373,39.922l-5.948,13.118C349.342,667.83,338.095,675.081,325.776,675.081z"/>
				</g>
				<g>
					<g>
						<path fill="#FFFFFF" d="M287.206,589.015c2.517,0,5.092,0.664,7.487,2.112l44.542,26.941
							c6.296,3.808,8.749,11.723,5.711,18.424l-5.949,13.118c-2.369,5.226-7.566,8.524-13.22,8.524
							c-0.453,0-0.908-0.021-1.366-0.063l-42.163-3.966c-8.012-0.754-13.884-7.88-13.092-15.888l3.569-36.094
							C273.501,594.281,280.119,589.016,287.206,589.015 M287.208,555.123h-0.002h-0.002c-11.702,0.002-23.018,4.244-31.863,11.948
							c-9.318,8.116-15.122,19.38-16.341,31.718l-3.569,36.094c-1.277,12.912,2.564,25.538,10.816,35.552
							s19.91,16.197,32.829,17.413l42.163,3.966c1.506,0.142,3.032,0.214,4.54,0.214c18.953,0,36.258-11.156,44.087-28.421
							l5.948-13.118c10.124-22.328,1.94-48.732-19.037-61.42l-44.542-26.941C304.657,557.545,296.003,555.123,287.208,555.123
							L287.208,555.123z"/>
					</g>
				</g>
			</g>
			<g display="inline">
				<g>
					<path fill="#FFFFFF" d="M126.111,750.146c-10.154,0-19.416-5.146-24.776-13.763l-16.118-25.913
						c-5.32-8.552-5.872-19.068-1.476-28.131c4.396-9.063,12.997-15.141,23.008-16.258l43.529-4.853
						c1.074-0.12,2.165-0.181,3.243-0.181c13.619,0,25.293,9.267,28.391,22.535l2.754,11.804
						c2.828,12.112-2.348,24.698-12.879,31.319l-30.165,18.963C136.964,748.598,131.601,750.146,126.111,750.146z"/>
				</g>
				<g>
					<g>
						<path fill="#FFFFFF" d="M153.521,677.994c5.612,0,10.586,3.862,11.889,9.442l2.755,11.802
							c1.185,5.078-0.982,10.348-5.396,13.122l-30.166,18.964c-2.021,1.271-4.27,1.876-6.491,1.876
							c-4.082,0-8.072-2.044-10.387-5.767l-16.118-25.912c-4.746-7.631,0.091-17.602,9.021-18.598l43.529-4.854
							C152.614,678.02,153.07,677.994,153.521,677.994 M153.521,644.104c-1.702,0-3.424,0.095-5.118,0.283l-43.532,4.854
							c-15.828,1.765-29.426,11.373-36.377,25.702c-6.951,14.328-6.079,30.956,2.333,44.479l16.118,25.912
							c8.474,13.624,23.115,21.758,39.166,21.758c8.685,0,17.167-2.447,24.528-7.074l30.166-18.965
							c16.649-10.466,24.833-30.365,20.363-49.517l-2.755-11.803c-2.366-10.138-8.168-19.271-16.339-25.718
							C173.973,647.623,163.832,644.104,153.521,644.104L153.521,644.104z"/>
					</g>
				</g>
			</g>
			<g display="inline">
				<g>
					<path fill="#FFFFFF" d="M116.208,609.643c-12.759,0-24.276-8.055-28.658-20.045l-4.675-12.793
						c-4.992-13.658,0.412-29.04,12.848-36.575l46.255-28.03c4.773-2.893,10.236-4.422,15.799-4.422
						c11.671,0,22.148,6.488,27.342,16.933l13.792,27.734c4.171,8.389,4.283,18.065,0.304,26.549
						c-3.979,8.482-11.491,14.584-20.609,16.739l-55.372,13.09C120.931,609.366,118.566,609.643,116.208,609.643z"/>
				</g>
				<g>
					<g>
						<path fill="#FFFFFF" d="M157.777,524.724c4.967-0.001,9.781,2.73,12.169,7.532l13.792,27.734
							c3.893,7.828-0.522,17.24-9.03,19.251l-55.372,13.09c-1.045,0.247-2.095,0.366-3.129,0.366c-5.585,0-10.75-3.467-12.741-8.916
							l-4.675-12.793c-2.226-6.091,0.168-12.905,5.714-16.266l46.255-28.031C152.965,525.355,155.389,524.724,157.777,524.724
							 M157.778,490.832h-0.001h-0.001c-8.66,0.001-17.16,2.378-24.58,6.875l-46.256,28.03
							c-19.34,11.72-27.744,35.644-19.981,56.884l4.675,12.793c6.815,18.646,24.728,31.174,44.574,31.174
							c3.671,0,7.347-0.428,10.927-1.275l55.371-13.089c14.181-3.353,25.864-12.841,32.052-26.034
							c6.189-13.193,6.017-28.242-0.472-41.291l-13.792-27.734C192.215,500.922,175.925,490.832,157.778,490.832L157.778,490.832z"
							/>
					</g>
				</g>
			</g>
			<g display="inline">
				<g>
					<path fill="#FFFFFF" d="M456.915,549.324c-2.05,0-4.112-0.209-6.13-0.621l-50.347-10.284
						c-8.143-1.663-15.098-6.433-19.584-13.431c-4.486-6.997-5.916-15.309-4.028-23.403l5.655-24.241
						c3.24-13.889,15.457-23.589,29.71-23.589c2.572,0,5.146,0.328,7.648,0.976l46.568,12.038
						c14.437,3.732,24.014,17.227,22.773,32.085l-1.876,22.486C485.995,537.033,472.646,549.324,456.915,549.324z"/>
				</g>
				<g>
					<g>
						<path fill="#FFFFFF" d="M412.19,470.701c1.125,0,2.268,0.141,3.408,0.436l46.568,12.038c6.4,1.655,10.678,7.681,10.128,14.269
							l-1.876,22.488c-0.598,7.165-6.612,12.447-13.504,12.447c-0.901,0-1.816-0.09-2.738-0.278l-50.347-10.284
							c-7.489-1.529-12.237-8.938-10.501-16.382l5.655-24.241C400.448,474.918,406.038,470.701,412.19,470.701 M412.192,436.81
							h-0.002h-0.002c-10.541,0-20.928,3.585-29.244,10.093c-8.49,6.643-14.516,16.086-16.965,26.591l-5.656,24.241
							c-2.895,12.406-0.611,25.673,6.265,36.398c6.875,10.726,17.978,18.339,30.459,20.888l50.347,10.285
							c3.133,0.64,6.336,0.963,9.521,0.963c11.811,0,23.139-4.383,31.9-12.342c8.914-8.098,14.375-19.17,15.377-31.179l1.877-22.487
							c1.928-23.109-12.969-44.096-35.42-49.899l-46.568-12.039C420.193,437.319,416.194,436.81,412.192,436.81L412.192,436.81z"/>
					</g>
				</g>
			</g>
			<g display="inline">
				<g>
					<path fill="#FFFFFF" d="M449.241,732.264c-5.607,0-11.104-1.546-15.896-4.472l-29.746-18.165
						c-12.074-7.373-17.48-21.929-13.146-35.396l21.09-65.536c4.075-12.665,15.754-21.175,29.062-21.175
						c4.589,0,9.024,1.011,13.183,3.004l54.09,25.937c8.396,4.024,14.419,11.534,16.53,20.602c2.109,9.067,0.02,18.465-5.736,25.782
						l-45.435,57.768C467.412,728.016,458.666,732.264,449.241,732.264z"/>
				</g>
				<g>
					<g>
						<path fill="#FFFFFF" d="M440.604,604.465c1.959,0,3.955,0.428,5.857,1.34l54.089,25.935c7.833,3.756,10.171,13.801,4.8,20.629
							l-45.434,57.767c-2.658,3.38-6.635,5.184-10.676,5.184c-2.422,0-4.867-0.647-7.065-1.99l-29.745-18.164
							c-5.352-3.267-7.768-9.773-5.848-15.74l21.091-65.539C429.548,608.062,434.922,604.465,440.604,604.465 M440.605,570.573
							L440.605,570.573h-0.005c-20.691,0.002-38.852,13.235-45.189,32.931l-21.09,65.537c-6.74,20.945,1.668,43.582,20.445,55.049
							l29.746,18.163c7.453,4.552,16.004,6.956,24.729,6.956c14.656,0,28.257-6.605,37.315-18.122l45.434-57.767
							c8.951-11.382,12.203-25.998,8.921-40.1c-3.281-14.103-12.651-25.781-25.707-32.041l-54.09-25.936
							C454.649,572.145,447.75,570.573,440.605,570.573L440.605,570.573z"/>
					</g>
				</g>
			</g>
			<g display="inline">
				<g>
					<path fill="#FFFFFF" d="M272.702,834.143c-4.865,0-9.721-1.184-14.043-3.424l-51.184-26.539
						c-8.74-4.531-14.783-13.054-16.167-22.799c-1.385-9.746,2.046-19.615,9.177-26.401l28.055-26.694
						c5.7-5.423,13.168-8.41,21.028-8.41c9.575,0,18.714,4.575,24.445,12.238l32.881,43.949c9.258,12.375,7.796,29.738-3.398,40.391
						l-9.754,9.28C288.043,831.156,280.571,834.143,272.702,834.143z"/>
				</g>
				<g>
					<g>
						<path fill="#FFFFFF" d="M249.567,736.82c4.11,0,8.191,1.853,10.877,5.442l32.881,43.951c4.12,5.507,3.47,13.224-1.512,17.963
							l-9.752,9.28c-2.583,2.457-5.952,3.74-9.359,3.74c-2.126,0-4.268-0.5-6.244-1.523l-51.183-26.537
							c-8.276-4.291-9.862-15.456-3.108-21.882l28.054-26.694C242.862,738.047,246.224,736.82,249.567,736.82 M249.568,702.93
							h-0.001h-0.001c-12.229,0-23.844,4.646-32.707,13.078l-28.055,26.694c-11.091,10.554-16.427,25.903-14.274,41.062
							s11.554,28.414,25.146,35.461l51.183,26.537c6.722,3.484,14.275,5.326,21.843,5.326c12.237,0,23.858-4.645,32.722-13.078
							l9.752-9.28c17.412-16.567,19.685-43.573,5.287-62.818l-32.882-43.95C278.666,710.044,264.455,702.93,249.568,702.93
							L249.568,702.93z"/>
					</g>
				</g>
			</g>
		</g>
		<path fill="#D59D29" d="M414.71,360.389c-0.84-0.338-1.689-0.674-2.548-1.008c-12.354,16.195-30.457,27.08-50.487,30.411
			c0.002,0.166,0.002,0.331,0.002,0.496c0,44.062-35.847,79.909-79.908,79.909c-30.699,0-57.954-17.167-71.35-43.839
			c-6.045,1.441-12.256,2.169-18.573,2.169c-18.104,0-35.645-6.212-49.686-17.344c-53.819,46.667-85.419,110.295-89.294,180.35
			c-3.84,69.401,19.512,136.614,65.753,189.257c13.273,15.111,27.986,28.496,43.848,40.036c30.358,2.987,60.751,4.744,91.19,2.405
			c12.758-0.98,25.496-2.556,38.183-4.361l-39.315-20.383c-8.861-4.595-10.559-16.549-3.328-23.43l30.037-28.58
			c6.307-6.001,16.438-5.148,21.653,1.822l35.206,47.058c3.412,4.56,3.756,10.53,1.274,15.353
			c7.634-1.943,15.179-4.232,22.596-6.883c3.853-1.377,7.667-2.854,11.45-4.409c14.488-5.955,29.092-11.817,43.287-18.474
			c15.628-7.327,30.133-16.428,44.357-26.154c21.588-14.764,42.582-30.666,62.361-47.763c12.133-10.486,23.369-21.997,33.303-34.594
			c8.812-11.177,17.486-22.182,25.59-33.54c0.701-5.652,1.242-11.355,1.583-17.115c0.909-15.396,0.489-30.901-1.249-46.082
			C569.81,481.086,504.675,396.573,414.71,360.389z M189.396,687.466l-32.298,20.305c-6.138,3.858-14.243,1.99-18.072-4.166
			l-17.257-27.744c-5.082-8.169,0.097-18.845,9.659-19.911l46.606-5.197c6.587-0.734,12.683,3.574,14.19,10.028l2.949,12.637
			C196.442,678.854,194.122,684.495,189.396,687.466z M207.547,522.797l-59.286,14.016c-7.165,1.693-14.465-2.239-16.992-9.154
			l-5.005-13.697c-2.384-6.521,0.179-13.818,6.117-17.416l49.525-30.012c7.272-4.406,16.757-1.656,20.543,5.957l14.767,29.694
			C221.384,510.566,216.656,520.645,207.547,522.797z M349.671,619.609l-6.369,14.046c-2.74,6.042-9.012,9.681-15.617,9.06
			l-45.143-4.247c-8.578-0.807-14.865-8.437-14.017-17.011l3.821-38.645c1.125-11.379,13.736-17.692,23.521-11.773l47.691,28.845
			C350.298,603.961,352.925,612.436,349.671,619.609z M412.718,496.828c-8.018-1.638-13.104-9.57-11.244-17.539l6.056-25.955
			c1.854-7.948,9.888-12.811,17.788-10.768l49.86,12.889c6.853,1.771,11.433,8.224,10.844,15.277l-2.009,24.077
			c-0.724,8.675-8.86,14.771-17.39,13.03L412.718,496.828z M521.415,636.608l-48.646,61.851c-4.551,5.787-12.711,7.256-18.995,3.418
			l-31.849-19.447c-5.728-3.498-8.315-10.465-6.26-16.854l22.582-70.171c2.697-8.384,12.174-12.46,20.115-8.652l57.912,27.769
			C524.661,618.543,527.164,629.298,521.415,636.608z"/>
		<path fill="#A57F48" d="M521.419,707.026c-19.779,17.097-40.773,32.999-62.361,47.763c-14.225,9.727-28.729,18.827-44.357,26.154
			c-14.195,6.656-28.799,12.519-43.287,18.474c-3.783,1.556-7.598,3.032-11.45,4.409c-7.417,2.65-14.962,4.939-22.596,6.883
			c-0.728,1.412-1.685,2.73-2.893,3.88l-10.442,9.937c-4.492,4.273-11.201,5.227-16.706,2.373l-15.486-8.029
			c-12.687,1.806-25.424,3.381-38.183,4.361c-30.439,2.339-60.832,0.582-91.19-2.405c39.401,28.663,85.927,45.891,135.341,49.538
			c6.598,0.486,13.279,0.734,19.858,0.734c134.136,0,246.341-100.682,262.645-232.205c-8.104,11.358-16.777,22.363-25.59,33.54
			C544.788,685.029,533.552,696.54,521.419,707.026z"/>
		<g>
			<path fill="#231F20" d="M606.614,572.721c-11.912-104.005-83.41-196.869-182.152-236.584c-4.223-1.699-8.679-3.358-13.242-4.934
				l-10.331-3.566l-5.339,9.536c-9.515,16.999-27.503,27.559-46.923,27.56l-0.274-0.009c-0.23-0.007-0.46-0.015-0.691-0.02
				l-16.079-0.296l2.997,15.8c0.636,3.353,0.959,6.744,0.959,10.081c0,29.648-24.121,53.769-53.77,53.769
				c-23.686,0-44.323-15.178-51.352-37.77l-4.29-13.79l-13.294,5.642c-6.643,2.818-13.704,4.248-20.987,4.248
				c-15.008,0-29.446-6.35-39.611-17.42l-8.255-8.989l-9.532,7.621c-31.403,25.104-56.698,55.386-75.184,90.005
				c-19.285,36.121-30.22,75.312-32.497,116.484c-4.22,76.281,21.426,150.133,72.214,207.951
				c50.792,57.826,120.721,92.77,196.905,98.393c7.235,0.533,14.564,0.805,21.781,0.805c153.717,0,281.242-120.318,290.321-273.916
				C608.987,606.42,608.524,589.396,606.614,572.721z M317.667,871.098c-6.579,0-13.26-0.248-19.858-0.734
				c-49.415-3.647-95.94-20.875-135.341-49.538c-15.862-11.54-30.575-24.925-43.848-40.036
				c-46.241-52.643-69.593-119.855-65.753-189.257c3.875-70.055,35.475-133.683,89.294-180.35
				c14.041,11.132,31.582,17.344,49.686,17.344c6.317,0,12.528-0.728,18.573-2.169c13.396,26.671,40.65,43.839,71.35,43.839
				c44.062,0,79.908-35.847,79.908-79.909c0-0.165,0-0.33-0.002-0.496c20.03-3.331,38.133-14.216,50.487-30.411
				c0.858,0.334,1.708,0.67,2.548,1.008c89.965,36.185,155.1,120.697,165.936,215.307c1.738,15.181,2.158,30.686,1.249,46.082
				c-0.341,5.76-0.882,11.463-1.583,17.115C564.008,770.416,451.803,871.098,317.667,871.098z"/>
		</g>
		<path fill="#492B15" d="M192.224,660.78c-1.507-6.454-7.603-10.763-14.19-10.028l-46.606,5.197
			c-9.562,1.066-14.741,11.742-9.659,19.911l17.257,27.744c3.829,6.156,11.934,8.024,18.072,4.166l32.298-20.305
			c4.726-2.971,7.046-8.612,5.777-14.049L192.224,660.78z"/>
		<path fill="#492B15" d="M202.449,472.49c-3.786-7.613-13.271-10.363-20.543-5.957l-49.525,30.012
			c-5.938,3.598-8.501,10.895-6.117,17.416l5.005,13.697c2.527,6.915,9.827,10.848,16.992,9.154l59.286-14.016
			c9.109-2.152,13.837-12.23,9.669-20.612L202.449,472.49z"/>
		<path fill="#492B15" d="M336.531,810.929c0.28-0.069,0.557-0.149,0.836-0.22c2.481-4.822,2.138-10.793-1.274-15.353
			l-35.206-47.058c-5.214-6.971-15.346-7.823-21.653-1.822l-30.037,28.58c-7.231,6.881-5.533,18.835,3.328,23.43l39.315,20.383
			c6.917-0.984,13.819-2.035,20.701-3.101C320.606,814.52,328.616,812.915,336.531,810.929z"/>
		<path fill="#492B15" d="M324.033,824.525l10.442-9.937c1.208-1.149,2.165-2.468,2.893-3.88c-0.279,0.07-0.556,0.15-0.836,0.22
			c-7.916,1.986-15.925,3.591-23.99,4.84c-6.882,1.065-13.785,2.116-20.701,3.101l15.486,8.029
			C312.832,829.752,319.541,828.799,324.033,824.525z"/>
		<path fill="#492B15" d="M343.558,599.884l-47.691-28.845c-9.784-5.919-22.395,0.395-23.521,11.773l-3.821,38.645
			c-0.848,8.574,5.438,16.204,14.017,17.011l45.143,4.247c6.605,0.621,12.877-3.018,15.617-9.06l6.369-14.046
			C352.925,612.436,350.298,603.961,343.558,599.884z"/>
		<path fill="#492B15" d="M484.013,494.81l2.009-24.077c0.589-7.054-3.991-13.506-10.844-15.277l-49.86-12.889
			c-7.9-2.043-15.934,2.82-17.788,10.768l-6.056,25.955c-1.859,7.969,3.227,15.901,11.244,17.539l53.905,11.012
			C475.152,509.581,483.289,503.484,484.013,494.81z"/>
		<path fill="#492B15" d="M516.274,614.521l-57.912-27.769c-7.941-3.808-17.418,0.269-20.115,8.652l-22.582,70.171
			c-2.056,6.389,0.532,13.355,6.26,16.854l31.849,19.447c6.284,3.838,14.444,2.369,18.995-3.418l48.646-61.851
			C527.164,629.298,524.661,618.543,516.274,614.521z"/>
	</g>
	<g id="SnakeBody_2_">
		<g>
			<path fill="#93C740" d="M446.896,848.66c1.017-0.654,2.04-1.299,3.048-1.967C448.937,847.361,447.913,848.006,446.896,848.66z"/>
		</g>
		<g>
			<path fill="#93C740" d="M439.039,853.541c1.849-1.098,3.683-2.219,5.502-3.361C442.722,851.322,440.888,852.443,439.039,853.541z
				"/>
		</g>
		<g>
			<path fill="#80B041" d="M444.541,850.18c0.792-0.497,1.569-1.014,2.355-1.52C446.11,849.166,445.333,849.683,444.541,850.18z"/>
		</g>
		<g>
			<path fill="#673995" d="M126.649,819.389c0.279,0.289,0.577,0.566,0.861,0.854c0.142-0.066,0.297-0.146,0.441-0.216
				C127.426,819.903,126.967,819.715,126.649,819.389z"/>
		</g>
		<path fill="#98CA3E" d="M59.499,579.98c-4.437,0-8.442,0.236-11.943,0.609c-0.231-0.018-0.464-0.027-0.696-0.027
			c-18.248-0.004-34.686,56.284-1.963,92.273c0,0,67.467-45.018,135.984-45.187c-32.335-28.058-80.476-43.661-105.151-46.663
			C69.856,580.271,64.413,579.98,59.499,579.98z"/>
		<path fill="#231F20" d="M198.012,607.906c-37.738-32.745-91.916-49.558-119.125-52.869c-6.521-0.793-13.044-1.195-19.389-1.195
			c-4.435,0-8.791,0.195-12.976,0.583c-7.99,0.084-27.016,3.303-38.843,30.033c-12.371,27.96-12.053,73.046,17.877,105.963
			c5.115,5.625,12.198,8.556,19.352,8.556c5.015,0,10.063-1.439,14.497-4.397c0.581-0.385,62-40.644,121.54-40.79
			c10.898-0.027,20.636-6.812,24.435-17.025C209.18,626.549,206.244,615.049,198.012,607.906z M59.499,579.98
			c4.914,0,10.357,0.291,16.232,1.006c24.675,3.002,72.815,18.605,105.151,46.663c-68.517,0.169-135.984,45.187-135.984,45.187
			c-32.723-35.989-16.285-92.277,1.963-92.273c0.231,0,0.464,0.01,0.696,0.027C51.057,580.217,55.062,579.98,59.499,579.98z"/>
		<path fill="none" d="M562.505,809.99c-9.885-7.751-18.129-10.852-32.221-18.059c0,0-0.002,0-0.003-0.001
			c0,0-15.38,16.694-17.188,18.781c-13.566,15.666-28.714,29.244-45.806,40.966c-0.754,0.517-1.521,1.014-2.279,1.523
			c-1.123,0.754-2.24,1.515-3.375,2.252c-1.072,0.698-2.162,1.372-3.246,2.055c-0.836,0.527-1.665,1.068-2.508,1.587
			c-1.938,1.192-3.891,2.362-5.858,3.508c2.897,0.945,5.896,1.888,8.991,2.816c3.096,0.93,6.289,1.847,9.58,2.743
			c16.273,4.432,33.373,6.982,50.224,6.982c27.04,0,53.438-6.572,74.784-22.466c-1.737-3.525-3.502-7.077-3.871-8.143
			C583.278,831.147,574.235,819.189,562.505,809.99z"/>
		<path fill="none" d="M96.053,821.387c0.427,1.18,0.882,2.344,1.352,3.498c-3.096-10.666-5.025-21.707-5.718-32.413
			C90.741,802.213,92.701,812.127,96.053,821.387z"/>
		<path fill="#93C740" d="M616.479,829.002c17.238-24.695,22.712-57.573,12.385-86.107c-4.836-13.358-13.072-24.275-23.322-33.072
			c-13.871-11.906-31.428-19.928-49.217-24.854c-17.219-4.769-35.287-7.044-53.342-7.044c-15.168,0-30.324,1.604-44.971,4.684
			c-9.4,1.977-18.68,4.519-27.801,7.531c-54.581,18.029-103.65,48.822-155.234,73.555c-32.179,15.429-66.377,29.411-102.335,32.067
			c-3.454,0.255-6.9,0.371-10.315,0.371c-36.13,0-68.758-13.039-68.758-13.039c-0.968,3.089-1.575,6.225-1.882,9.378
			c0.693,10.706,2.622,21.747,5.718,32.413c12.607,30.989,40.526,53.18,73.495,59.888c10.644,2.165,21.458,3.151,32.326,3.151
			c71.108,0,144.871-42.141,193.656-71.474c29.459-17.711,64.656-28.946,99.271-28.946c5.308,0,10.601,0.264,15.856,0.809
			c6.055,0.628,12.057,1.822,17.382,3.363c0.296,0.085,0.599,0.168,0.891,0.255c0.001,0.001,0.002,0.001,0.002,0.001
			c14.093,7.207,22.337,10.308,32.222,18.059c11.73,9.199,20.773,21.157,27.225,34.546c0.369,1.065,2.134,4.617,3.871,8.143
			C602.126,846.331,609.849,838.502,616.479,829.002z"/>
		<path fill="none" d="M605.542,709.822c-13.871-11.906-31.428-19.928-49.217-24.854c-17.219-4.769-35.287-7.044-53.342-7.044
			c-15.168,0-30.324,1.604-44.971,4.684c-9.4,1.977-18.68,4.519-27.801,7.531c-54.581,18.029-103.65,48.822-155.234,73.555
			c-32.179,15.429-66.377,29.411-102.335,32.067c-3.454,0.255-6.9,0.371-10.315,0.371c-36.13,0-68.758-13.039-68.758-13.039
			c-0.968,3.089-1.575,6.225-1.882,9.378c-0.946,9.741,1.014,19.655,4.366,28.915c0.427,1.18,0.882,2.344,1.352,3.498
			c12.607,30.989,40.526,53.18,73.495,59.888c10.644,2.165,21.458,3.151,32.326,3.151c71.108,0,144.871-42.141,193.656-71.474
			c29.459-17.711,64.656-28.946,99.271-28.946c5.308,0,10.601,0.264,15.856,0.809c6.055,0.628,12.057,1.822,17.382,3.363
			c0.296,0.085,0.599,0.168,0.891,0.255c0,0-0.084,0.092-0.228,0.247c2.241,0.371,4.845,0.948,7.805,1.823
			c0,0,18.682,10.378,23.83,14.997c6.457,5.547,12.447,11.586,17.91,18.113c3.803,5.556,7.209,11.361,10.131,17.425
			c0.369,1.065,2.135,4.617,3.871,8.143l0,0c8.525-6.348,16.248-14.177,22.879-23.677c17.238-24.695,22.712-57.573,12.385-86.107
			C624.028,729.536,615.792,718.619,605.542,709.822z"/>
		<path fill="#80B041" d="M579.599,827.111c-5.463-6.527-11.453-12.566-17.91-18.113c-5.148-4.619-23.83-14.997-23.83-14.997
			c-2.96-0.875-5.563-1.452-7.805-1.823c-1.887,2.049-15.28,16.596-16.96,18.534c-13.566,15.666-28.714,29.244-45.806,40.966
			c-0.754,0.517-1.521,1.014-2.279,1.523c-1.123,0.754-2.24,1.515-3.375,2.252c-1.072,0.698-2.162,1.372-3.246,2.055
			c-0.836,0.527-1.665,1.068-2.508,1.587c-1.938,1.192-3.891,2.362-5.858,3.508c2.897,0.945,5.896,1.888,8.991,2.816
			c3.096,0.93,6.289,1.847,9.58,2.743c16.273,4.432,33.373,6.982,50.224,6.982c27.04,0,53.438-6.572,74.784-22.466
			c-1.736-3.525-3.502-7.077-3.871-8.143C586.808,838.473,583.401,832.667,579.599,827.111z"/>
		<path fill="#231F20" d="M653.442,733.998c-6.101-16.855-16.488-31.662-30.875-44.012c-15.746-13.516-35.687-23.68-59.266-30.209
			c-19.148-5.303-39.443-7.992-60.318-7.992c-16.861,0-33.801,1.765-50.349,5.243c-10.078,2.119-20.381,4.909-30.622,8.292
			c-39.143,12.929-75.227,31.884-110.123,50.215c-15.79,8.295-32.118,16.872-48.213,24.589
			c-27.679,13.271-60.369,27.162-92.96,29.569c-2.7,0.199-5.523,0.301-8.39,0.301c-29.951,0-58.065-10.789-59.087-11.186
			c-3.13-1.264-6.426-1.891-9.718-1.891c-3.817,0-7.628,0.843-11.168,2.514c-6.602,3.117-11.543,8.875-13.727,15.842
			c-5.255,16.763-4.297,35.271,2.848,55.01c7.346,20.295,20.08,38.453,36.824,52.512c16.368,13.742,36.212,23.283,57.39,27.592
			c11.989,2.439,24.618,3.676,37.537,3.676c35.191,0,72.945-8.772,115.42-26.818c33.608-14.277,63.937-31.696,91.706-48.393
			c19.171-11.525,40.067-19.38,60.688-22.976c-5.873,5.054-12.032,9.784-18.535,14.243c-0.355,0.244-0.71,0.478-1.064,0.713
			c-0.334,0.221-0.669,0.443-1.002,0.666l-0.861,0.58c-0.728,0.49-1.455,0.982-2.191,1.461c-0.66,0.43-1.326,0.846-1.992,1.263
			l-0.946,0.595c-0.352,0.223-0.702,0.445-1.052,0.668c-0.404,0.26-0.81,0.519-1.219,0.771c-1.757,1.081-3.541,2.148-5.302,3.174
			c-8.904,5.182-13.935,15.109-12.847,25.354s8.093,18.895,17.887,22.09c3.187,1.039,6.41,2.049,9.581,3.001
			c3.392,1.019,6.833,2.004,10.228,2.929c19.252,5.242,38.461,7.9,57.093,7.9c23.69,0,45.501-4.306,64.825-12.798
			c22.201-9.757,40.461-24.736,54.271-44.522c10.865-15.563,18.107-33.785,20.945-52.695
			C661.795,771.703,659.922,751.9,653.442,733.998z M616.479,829.002c-6.631,9.5-14.354,17.329-22.879,23.677
			c-21.346,15.894-47.744,22.466-74.784,22.466c-16.851,0-33.95-2.551-50.224-6.982c-3.291-0.896-6.484-1.813-9.58-2.743
			c-3.096-0.929-6.094-1.871-8.991-2.816c1.968-1.146,3.921-2.315,5.858-3.508c0.843-0.519,1.672-1.06,2.508-1.587
			c1.084-0.683,2.174-1.356,3.246-2.055c1.135-0.737,2.252-1.498,3.375-2.252c0.758-0.51,1.525-1.007,2.279-1.523
			c17.092-11.722,32.239-25.3,45.806-40.966c1.68-1.938,15.073-16.485,16.96-18.534c0.144-0.155,0.228-0.247,0.228-0.247
			c-0.292-0.087-0.595-0.17-0.891-0.255c-5.325-1.541-11.327-2.735-17.382-3.363c-5.256-0.545-10.549-0.809-15.856-0.809
			c-34.614,0-69.812,11.235-99.271,28.946c-48.785,29.333-122.548,71.474-193.656,71.474c-10.867,0-21.682-0.986-32.326-3.151
			c-32.969-6.708-60.888-28.898-73.495-59.888c-0.47-1.154-0.925-2.318-1.352-3.498c-3.352-9.26-5.312-19.174-4.366-28.915
			c0.307-3.153,0.914-6.289,1.882-9.378c0,0,32.628,13.039,68.758,13.039c3.415,0,6.862-0.116,10.315-0.371
			c35.958-2.656,70.156-16.639,102.335-32.067c51.584-24.732,100.653-55.525,155.234-73.555c9.121-3.013,18.4-5.555,27.801-7.531
			c14.646-3.079,29.803-4.684,44.971-4.684c18.055,0,36.123,2.275,53.342,7.044c17.789,4.926,35.346,12.947,49.217,24.854
			c10.25,8.797,18.486,19.714,23.322,33.072C639.191,771.429,633.718,804.307,616.479,829.002z"/>
	</g>
</g>
</svg>
