<?xml version="1.0" encoding="utf-8"?>
<!-- Generator: Adobe Illustrator 15.0.0, SVG Export Plug-In . SVG Version: 6.00 Build 0)  -->
<!DOCTYPE svg PUBLIC "-//W3C//DTD SVG 1.1//EN" "http://www.w3.org/Graphics/SVG/1.1/DTD/svg11.dtd">
<svg version="1.1" id="Layer_1" xmlns="http://www.w3.org/2000/svg" xmlns:xlink="http://www.w3.org/1999/xlink" x="0px" y="0px"
	 width="1333.527px" height="531px" viewBox="0 0 1333.527 531" enable-background="new 0 0 1333.527 531" xml:space="preserve">
<g id="Horizontal">
	<g>
		<g id="SnakeHead_4_">
			<g>
				<path fill="#98CA3E" d="M279.353,25.829c-9.523-4.173-19.002-7.061-28.381-8.795c-6.77-1.251-13.473-1.85-20.07-1.85
					c-33.51,0-64.443,15.403-89.32,38.723c-30.191,28.301-81.253,86.206-20.021,112.021c17.828,7.517,37.536,11.516,57.139,11.516
					c13.277,0,26.506-1.835,39.072-5.654c14.698-4.467,28.514-11.602,40.753-20.875c3.396-2.572,15.062-12.726,20.161-23.592
					c0,0,0.401,20.459-9.227,44.127c-9.302,22.868-36.484,53.297-36.484,53.297l62.33,53.207c0.225,0.25,0.443,0.504,0.668,0.754
					c0.056,0.062,0.115,0.123,0.171,0.185c8.531-12.831,16.226-26.393,22.645-40.758C350.122,168.004,365.106,63.412,279.353,25.829
					z"/>
				<path fill="#231F20" d="M349.08,77.192c-5.521-14.284-13.452-26.944-23.573-37.629c-10.841-11.443-24.319-20.743-40.06-27.642
					c-10.357-4.539-21.028-7.843-31.716-9.819C246.186,0.707,238.505,0,230.901,0c-18.294,0-36.506,4.022-54.13,11.954
					c-16.133,7.261-31.466,17.648-45.575,30.874c-15.163,14.214-27.334,28.005-36.176,40.991
					c-13.961,20.505-19.558,39.183-16.635,55.516c1.587,8.87,5.617,16.856,11.977,23.739c6.207,6.718,14.719,12.386,25.298,16.846
					c19.72,8.314,41.518,12.708,63.038,12.708c15.08,0,29.712-2.123,43.488-6.31c10.225-3.107,20.044-7.338,29.354-12.639
					c-8.624,15.699-23.876,34.218-29.89,40.951c-2.722,3.047-4.102,7.063-3.826,11.141s2.184,7.871,5.292,10.524l61.525,52.521
					c0.015,0.017,0.031,0.033,0.046,0.051c0.092,0.103,0.19,0.208,0.288,0.312c2.885,3.133,6.94,4.897,11.167,4.897
					c0.382,0,0.766-0.015,1.15-0.044c4.665-0.354,8.906-2.838,11.496-6.734c9.435-14.19,17.464-28.648,23.863-42.971
					c8.364-18.719,19.297-48.072,23.887-81.605C360.98,130.268,358.471,101.491,349.08,77.192z M295.304,277.953l-62.33-53.207
					c0,0,27.182-30.429,36.484-53.297c9.627-23.668,9.227-44.127,9.227-44.127c-5.099,10.866-16.766,21.02-20.161,23.592
					c-12.24,9.273-26.055,16.408-40.753,20.875c-12.566,3.819-25.795,5.654-39.072,5.654c-19.603,0-39.311-3.999-57.139-11.516
					c-61.231-25.814-10.17-83.72,20.021-112.021c24.877-23.319,55.811-38.723,89.32-38.723c6.598,0,13.3,0.599,20.07,1.85
					c9.379,1.734,18.858,4.622,28.381,8.795c85.753,37.583,70.77,142.175,39.435,212.305c-6.418,14.365-14.113,27.927-22.645,40.758
					c-0.057-0.062-0.115-0.122-0.171-0.185C295.747,278.457,295.528,278.203,295.304,277.953z"/>
			</g>
			<g>
				<path fill="#80B041" d="M264.26,238.514c1.498-3.649,2.944-7.32,4.329-11.015c6.157-16.429,11.223-33.378,13.935-50.736
					c1.013-9.021,1.292-18.126,0.423-27.163c-0.848-4.833-2.072-9.586-3.746-14.197c-0.255-0.529-0.527-1.049-0.795-1.569
					c-0.623,7.882-2.616,22.052-8.947,37.616c-9.302,22.868-36.484,53.297-36.484,53.297l27.117,23.148
					C261.514,244.782,262.906,241.656,264.26,238.514z"/>
			</g>
			<g>
				<circle fill="#231F20" cx="203.285" cy="123.602" r="20.978"/>
			</g>
		</g>
		<g id="Cookie_5_">
			<g display="none">
				<g display="inline">
					<g>
						<path fill="#FFFFFF" d="M189.251,392.17c-0.57,0-1.147-0.026-1.715-0.08l-24.494-2.305c-4.877-0.459-9.279-2.793-12.396-6.574
							c-3.115-3.781-4.566-8.549-4.083-13.425l2.073-20.967c0.93-9.401,8.758-16.491,18.208-16.491c3.314,0,6.58,0.916,9.444,2.648
							l25.875,15.65c7.921,4.791,11.011,14.761,7.188,23.191l-3.456,7.62C202.941,387.958,196.407,392.17,189.251,392.17z"/>
					</g>
					<g>
						<g>
							<path fill="#FFFFFF" d="M166.845,342.172c1.462,0,2.958,0.386,4.35,1.228l25.875,15.65c3.657,2.212,5.083,6.81,3.317,10.703
								l-3.456,7.62c-1.376,3.035-4.396,4.953-7.68,4.953c-0.263,0-0.528-0.013-0.793-0.037l-24.493-2.305
								c-4.654-0.438-8.065-4.577-7.605-9.229l2.073-20.967C158.883,345.231,162.728,342.173,166.845,342.172 M166.845,322.484
								L166.845,322.484h-0.002c-6.798,0-13.372,2.465-18.51,6.94c-5.413,4.714-8.785,11.258-9.493,18.426l-2.074,20.968
								c-0.742,7.5,1.49,14.835,6.283,20.652s11.566,9.41,19.071,10.115l24.493,2.305c0.875,0.082,1.762,0.124,2.638,0.124
								c11.01,0,21.063-6.481,25.611-16.511l3.456-7.62c5.882-12.971,1.127-28.31-11.059-35.681l-25.875-15.65
								C176.982,323.891,171.956,322.484,166.845,322.484L166.845,322.484z"/>
						</g>
					</g>
				</g>
				<g display="inline">
					<g>
						<path fill="#FFFFFF" d="M73.261,435.777c-5.899,0-11.279-2.989-14.393-7.995l-9.363-15.053
							c-3.09-4.968-3.411-11.078-0.857-16.343s7.55-8.795,13.366-9.443l25.288-2.82c0.624-0.069,1.257-0.104,1.884-0.104
							c7.911,0,14.693,5.384,16.492,13.091l1.601,6.857c1.642,7.036-1.365,14.348-7.482,18.193l-17.523,11.018
							C79.566,434.878,76.45,435.777,73.261,435.777z"/>
					</g>
					<g>
						<g>
							<path fill="#FFFFFF" d="M89.184,393.862c3.26,0,6.15,2.244,6.906,5.485l1.601,6.856c0.688,2.949-0.571,6.011-3.135,7.622
								l-17.524,11.017c-1.174,0.738-2.48,1.09-3.771,1.09c-2.371,0-4.688-1.187-6.034-3.35l-9.363-15.054
								c-2.757-4.432,0.053-10.225,5.241-10.803l25.287-2.82C88.657,393.877,88.922,393.862,89.184,393.862 M89.184,374.174
								c-0.988,0-1.989,0.056-2.973,0.166l-25.289,2.819c-9.194,1.025-17.094,6.606-21.132,14.931
								c-4.038,8.324-3.531,17.983,1.355,25.839l9.363,15.054c4.923,7.914,13.428,12.639,22.752,12.639
								c5.045,0,9.973-1.421,14.25-4.109l17.524-11.017c9.672-6.08,14.426-17.641,11.829-28.766l-1.6-6.856
								c-1.375-5.889-4.746-11.195-9.492-14.939C101.065,376.22,95.174,374.174,89.184,374.174L89.184,374.174z"/>
						</g>
					</g>
				</g>
				<g display="inline">
					<g>
						<path fill="#FFFFFF" d="M67.507,354.155c-7.412,0-14.102-4.679-16.647-11.644l-2.716-7.432
							c-2.9-7.936,0.239-16.871,7.464-21.248l26.87-16.283c2.773-1.681,5.947-2.569,9.179-2.569c6.78,0,12.866,3.77,15.884,9.837
							l8.012,16.111c2.424,4.873,2.488,10.494,0.177,15.423c-2.312,4.928-6.675,8.472-11.972,9.724l-32.167,7.604
							C70.251,353.995,68.878,354.155,67.507,354.155z"/>
					</g>
					<g>
						<g>
							<path fill="#FFFFFF" d="M91.657,304.824c2.885,0,5.682,1.586,7.069,4.375l8.012,16.111
								c2.262,4.548-0.303,10.016-5.246,11.184l-32.167,7.604c-0.607,0.144-1.217,0.213-1.818,0.213
								c-3.244,0-6.244-2.014-7.401-5.18L57.39,331.7c-1.293-3.538,0.097-7.497,3.319-9.449l26.871-16.284
								C88.861,305.191,90.27,304.824,91.657,304.824 M91.657,285.136L91.657,285.136h-0.001c-5.031,0.001-9.969,1.382-14.279,3.993
								l-26.871,16.284c-11.235,6.808-16.117,20.706-11.607,33.045l2.716,7.433C45.573,356.723,55.979,364,67.507,364
								c2.133,0,4.269-0.25,6.348-0.741l32.167-7.604c8.238-1.947,15.025-7.459,18.62-15.123s3.495-16.407-0.274-23.987
								l-8.012-16.111C111.663,290.997,102.199,285.136,91.657,285.136L91.657,285.136z"/>
						</g>
					</g>
				</g>
				<g display="inline">
					<g>
						<path fill="#FFFFFF" d="M265.433,319.115c-1.191,0-2.389-0.121-3.561-0.361l-29.248-5.974
							c-4.73-0.966-8.771-3.737-11.377-7.802c-2.606-4.065-3.437-8.894-2.34-13.596l3.286-14.083
							c1.882-8.068,8.979-13.703,17.259-13.703c1.494,0,2.989,0.19,4.443,0.566l27.053,6.993
							c8.386,2.169,13.95,10.008,13.229,18.639l-1.09,13.063C282.326,311.975,274.571,319.115,265.433,319.115z"/>
					</g>
					<g>
						<g>
							<path fill="#FFFFFF" d="M239.451,273.441c0.654,0,1.317,0.081,1.98,0.253l27.052,6.993c3.719,0.961,6.204,4.462,5.884,8.289
								l-1.09,13.063c-0.347,4.162-3.841,7.231-7.844,7.231c-0.524,0-1.056-0.053-1.591-0.162l-29.248-5.975
								c-4.35-0.889-7.109-5.191-6.101-9.516l3.286-14.083C232.629,275.891,235.877,273.441,239.451,273.441 M239.452,253.753
								L239.452,253.753h-0.002c-6.125,0-12.158,2.083-16.989,5.863c-4.932,3.858-8.432,9.345-9.855,15.447l-3.286,14.082
								c-1.681,7.208-0.355,14.915,3.639,21.146s10.443,10.652,17.694,12.134l29.248,5.975c1.819,0.372,3.68,0.56,5.531,0.56
								c6.861,0,13.442-2.546,18.532-7.17c5.179-4.704,8.351-11.137,8.933-18.112l1.09-13.063
								c1.12-13.425-7.534-25.615-20.576-28.987l-27.052-6.993C244.1,254.049,241.777,253.753,239.452,253.753L239.452,253.753z"/>
						</g>
					</g>
				</g>
				<g display="inline">
					<g>
						<path fill="#FFFFFF" d="M260.975,425.389c-3.257,0-6.45-0.898-9.235-2.598l-17.28-10.553
							c-7.014-4.283-10.154-12.738-7.636-20.562l12.251-38.072c2.367-7.357,9.152-12.301,16.883-12.301
							c2.666,0,5.242,0.587,7.658,1.745l31.422,15.066c4.877,2.339,8.377,6.701,9.603,11.969c1.226,5.268,0.012,10.727-3.332,14.978
							l-26.394,33.558C271.531,422.922,266.45,425.389,260.975,425.389z"/>
					</g>
					<g>
						<g>
							<path fill="#FFFFFF" d="M255.957,351.147c1.139,0,2.298,0.249,3.403,0.778l31.422,15.066
								c4.55,2.182,5.908,8.017,2.789,11.983l-26.394,33.559c-1.544,1.963-3.854,3.011-6.203,3.011
								c-1.407,0-2.827-0.376-4.104-1.156l-17.28-10.552c-3.108-1.897-4.512-5.678-3.396-9.145l12.252-38.072
								C249.534,353.238,252.656,351.148,255.957,351.147 M255.958,331.459L255.958,331.459h-0.002
								c-12.021,0.001-22.57,7.689-26.252,19.13l-12.251,38.073c-3.916,12.167,0.969,25.317,11.877,31.979l17.28,10.552
								c4.33,2.644,9.296,4.041,14.365,4.041c8.515,0,16.416-3.838,21.678-10.528l26.394-33.558
								c5.2-6.612,7.089-15.103,5.183-23.295s-7.35-14.978-14.934-18.614l-31.422-15.065
								C264.117,332.372,260.108,331.459,255.958,331.459L255.958,331.459z"/>
						</g>
					</g>
				</g>
				<g display="inline">
					<g>
						<path fill="#FFFFFF" d="M158.419,484.572c-2.826,0-5.647-0.688-8.158-1.988l-29.734-15.417
							c-5.077-2.632-8.587-7.584-9.392-13.245c-0.805-5.662,1.188-11.395,5.331-15.337l16.298-15.508
							c3.311-3.149,7.649-4.885,12.215-4.885c5.562,0,10.872,2.657,14.201,7.108l19.101,25.531
							c5.378,7.189,4.529,17.276-1.974,23.465l-5.667,5.391C167.331,482.838,162.99,484.572,158.419,484.572z"/>
					</g>
					<g>
						<g>
							<path fill="#FFFFFF" d="M144.979,428.036c2.388,0,4.759,1.076,6.319,3.161l19.102,25.532
								c2.393,3.199,2.016,7.682-0.878,10.436l-5.666,5.391c-1.501,1.428-3.458,2.173-5.437,2.173c-1.236,0-2.479-0.29-3.627-0.885
								l-29.733-15.416c-4.808-2.492-5.729-8.979-1.806-12.712l16.297-15.507C141.084,428.748,143.038,428.036,144.979,428.036
								 M144.98,408.348L144.98,408.348h-0.002c-7.104,0.001-13.852,2.699-19,7.598l-16.297,15.508
								c-6.443,6.131-9.543,15.047-8.292,23.854c1.251,8.805,6.711,16.506,14.607,20.6l29.733,15.416
								c3.905,2.024,8.292,3.095,12.689,3.095c7.109,0,13.859-2.698,19.009-7.599l5.666-5.391
								c10.115-9.624,11.435-25.312,3.071-36.492l-19.102-25.532C161.883,412.48,153.628,408.348,144.98,408.348L144.98,408.348z"/>
						</g>
					</g>
				</g>
			</g>
			<path fill="#D59D29" d="M240.915,209.357c-0.487-0.195-0.981-0.391-1.48-0.585c-7.177,9.408-17.693,15.731-29.329,17.667
				c0.001,0.096,0.001,0.191,0.001,0.287c0,25.597-20.824,46.422-46.421,46.422c-17.834,0-33.667-9.974-41.449-25.468
				c-3.512,0.838-7.12,1.26-10.79,1.26c-10.517,0-20.707-3.608-28.863-10.075c-31.265,27.109-49.622,64.073-51.874,104.77
				c-2.23,40.316,11.335,79.362,38.198,109.943c7.711,8.779,16.258,16.555,25.473,23.258c17.636,1.736,35.292,2.756,52.975,1.397
				c7.411-0.569,14.811-1.484,22.181-2.533l-22.838-11.841c-5.148-2.67-6.134-9.613-1.934-13.61l17.449-16.604
				c3.664-3.486,9.549-2.991,12.579,1.059l20.452,27.337c1.981,2.648,2.182,6.117,0.74,8.918c4.435-1.129,8.817-2.459,13.126-3.998
				c2.238-0.8,4.454-1.658,6.652-2.561c8.417-3.46,16.9-6.865,25.147-10.732c9.078-4.256,17.504-9.543,25.768-15.194
				c12.541-8.576,24.737-17.813,36.228-27.746c7.048-6.091,13.575-12.778,19.346-20.096c5.12-6.493,10.158-12.886,14.866-19.484
				c0.407-3.283,0.722-6.597,0.919-9.942c0.529-8.944,0.285-17.951-0.726-26.771C331.016,279.475,293.178,230.379,240.915,209.357z
				 M110.025,399.365L91.262,411.16c-3.565,2.241-8.274,1.156-10.498-2.42l-10.025-16.117c-2.952-4.746,0.056-10.947,5.611-11.567
				l27.075-3.019c3.827-0.427,7.368,2.076,8.243,5.825l1.713,7.341C114.118,394.361,112.77,397.639,110.025,399.365z
				 M120.569,303.705l-34.44,8.142c-4.162,0.983-8.403-1.301-9.871-5.317l-2.908-7.958c-1.385-3.788,0.104-8.026,3.554-10.117
				l28.77-17.435c4.225-2.56,9.734-0.962,11.934,3.461l8.578,17.25C128.607,296.6,125.861,302.454,120.569,303.705z
				 M203.132,359.945l-3.7,8.16c-1.592,3.51-5.235,5.623-9.072,5.262l-26.225-2.467c-4.983-0.469-8.636-4.9-8.143-9.882l2.22-22.449
				c0.653-6.61,7.979-10.278,13.663-6.84l27.705,16.757C203.497,350.854,205.022,355.777,203.132,359.945z M239.757,288.619
				c-4.658-0.951-7.612-5.56-6.532-10.189l3.518-15.078c1.077-4.616,5.744-7.441,10.334-6.255l28.964,7.487
				c3.981,1.029,6.642,4.777,6.3,8.876l-1.167,13.986c-0.42,5.04-5.147,8.581-10.102,7.569L239.757,288.619z M302.902,369.82
				l-28.259,35.931c-2.644,3.361-7.385,4.215-11.035,1.985l-18.501-11.297c-3.328-2.032-4.831-6.079-3.637-9.791l13.118-40.764
				c1.567-4.871,7.072-7.238,11.686-5.026l33.643,16.131C304.788,359.326,306.242,365.573,302.902,369.82z"/>
			<path fill="#A57F48" d="M302.905,410.728c-11.491,9.933-23.687,19.17-36.228,27.746c-8.263,5.651-16.689,10.938-25.768,15.194
				c-8.247,3.867-16.73,7.272-25.147,10.732c-2.198,0.902-4.414,1.761-6.652,2.561c-4.309,1.539-8.692,2.869-13.126,3.998
				c-0.422,0.82-0.978,1.587-1.68,2.255l-6.066,5.771c-2.609,2.483-6.507,3.037-9.705,1.379l-8.997-4.664
				c-7.37,1.049-14.77,1.964-22.181,2.533c-17.683,1.358-35.339,0.339-52.975-1.397c22.889,16.651,49.917,26.659,78.623,28.778
				c3.832,0.283,7.714,0.427,11.535,0.427c77.923,0,143.105-58.489,152.577-134.894c-4.708,6.599-9.747,12.991-14.866,19.484
				C316.48,397.949,309.953,404.637,302.905,410.728z"/>
			<g>
				<path fill="#231F20" d="M352.396,332.707c-6.92-60.419-48.455-114.366-105.815-137.438c-2.454-0.986-5.042-1.951-7.693-2.866
					l-6.002-2.071l-3.101,5.539c-5.528,9.875-15.978,16.01-27.259,16.01l-0.16-0.005c-0.133-0.005-0.267-0.009-0.401-0.011
					l-9.341-0.173l1.741,9.179c0.37,1.947,0.557,3.918,0.557,5.855c0,17.225-14.012,31.236-31.235,31.236
					c-13.76,0-25.748-8.817-29.831-21.941l-2.492-8.011l-7.724,3.276c-3.859,1.639-7.961,2.469-12.191,2.469
					c-8.719,0-17.106-3.688-23.011-10.119l-4.796-5.223l-5.538,4.427c-18.243,14.584-32.938,32.175-43.676,52.287
					c-11.203,20.982-17.555,43.75-18.878,67.668C13.098,387.109,27.997,430.011,57.5,463.6
					c29.506,33.592,70.13,53.892,114.387,57.158c4.203,0.311,8.46,0.467,12.653,0.467c89.298,0,163.38-69.896,168.655-159.124
					C353.775,352.283,353.506,342.394,352.396,332.707z M184.54,506.041c-3.821,0-7.703-0.144-11.535-0.427
					c-28.707-2.119-55.734-12.127-78.623-28.778c-9.215-6.703-17.762-14.479-25.473-23.258
					c-26.862-30.581-40.428-69.627-38.198-109.943c2.251-40.696,20.608-77.66,51.874-104.77
					c8.156,6.467,18.347,10.075,28.863,10.075c3.67,0,7.278-0.422,10.79-1.26c7.782,15.494,23.615,25.468,41.449,25.468
					c25.597,0,46.421-20.825,46.421-46.422c0-0.096,0-0.191-0.001-0.287c11.636-1.936,22.152-8.259,29.329-17.667
					c0.499,0.194,0.993,0.39,1.48,0.585c52.263,21.021,90.101,70.117,96.396,125.077c1.01,8.819,1.255,17.826,0.726,26.771
					c-0.197,3.346-0.512,6.659-0.919,9.942C327.645,447.552,262.463,506.041,184.54,506.041z"/>
			</g>
			<path fill="#492B15" d="M111.667,383.862c-0.875-3.749-4.417-6.252-8.243-5.825l-27.075,3.019
				c-5.555,0.62-8.563,6.821-5.611,11.567l10.025,16.117c2.224,3.576,6.933,4.661,10.498,2.42l18.763-11.795
				c2.745-1.727,4.093-5.004,3.356-8.162L111.667,383.862z"/>
			<path fill="#492B15" d="M117.607,274.48c-2.2-4.423-7.709-6.021-11.934-3.461l-28.77,17.435
				c-3.45,2.091-4.938,6.329-3.554,10.117l2.908,7.958c1.468,4.017,5.709,6.301,9.871,5.317l34.44-8.142
				c5.292-1.251,8.038-7.105,5.617-11.975L117.607,274.48z"/>
			<path fill="#492B15" d="M195.499,471.088c0.163-0.041,0.323-0.088,0.485-0.129c1.442-2.801,1.242-6.27-0.74-8.918l-20.452-27.337
				c-3.029-4.05-8.915-4.545-12.579-1.059l-17.449,16.604c-4.201,3.997-3.214,10.94,1.934,13.61l22.838,11.841
				c4.019-0.572,8.028-1.183,12.026-1.802C186.248,473.174,190.901,472.241,195.499,471.088z"/>
			<path fill="#492B15" d="M188.238,478.985l6.066-5.771c0.702-0.668,1.258-1.435,1.68-2.255c-0.162,0.041-0.323,0.088-0.485,0.129
				c-4.598,1.153-9.251,2.086-13.937,2.811c-3.998,0.619-8.007,1.229-12.026,1.802l8.997,4.664
				C181.731,482.022,185.628,481.469,188.238,478.985z"/>
			<path fill="#492B15" d="M199.581,348.486l-27.705-16.757c-5.684-3.438-13.01,0.229-13.663,6.84l-2.22,22.449
				c-0.493,4.981,3.16,9.413,8.143,9.882l26.225,2.467c3.837,0.361,7.48-1.752,9.072-5.262l3.7-8.16
				C205.022,355.777,203.497,350.854,199.581,348.486z"/>
			<path fill="#492B15" d="M281.174,287.446l1.167-13.986c0.342-4.099-2.318-7.847-6.3-8.876l-28.964-7.487
				c-4.59-1.187-9.257,1.639-10.334,6.255l-3.518,15.078c-1.08,4.63,1.874,9.238,6.532,10.189l31.315,6.396
				C276.027,296.027,280.754,292.486,281.174,287.446z"/>
			<path fill="#492B15" d="M299.917,356.989l-33.643-16.131c-4.614-2.212-10.119,0.155-11.686,5.026l-13.118,40.764
				c-1.194,3.712,0.309,7.759,3.637,9.791l18.501,11.297c3.65,2.229,8.391,1.376,11.035-1.985l28.259-35.931
				C306.242,365.573,304.788,359.326,299.917,356.989z"/>
		</g>
		<g id="SnakeBody_4_">
			<g>
				<path fill="#93C740" d="M259.612,493.006c0.591-0.379,1.186-0.754,1.771-1.143C260.797,492.252,260.204,492.627,259.612,493.006
					z"/>
			</g>
			<g>
				<path fill="#93C740" d="M255.048,495.842c1.074-0.638,2.14-1.289,3.196-1.953C257.188,494.553,256.122,495.204,255.048,495.842z
					"/>
			</g>
			<g>
				<path fill="#80B041" d="M258.244,493.889c0.46-0.288,0.912-0.589,1.368-0.883C259.156,493.3,258.704,493.601,258.244,493.889z"
					/>
			</g>
			<g>
				<path fill="#673995" d="M73.574,476.002c0.162,0.168,0.335,0.329,0.5,0.496c0.083-0.039,0.173-0.086,0.256-0.126
					C74.025,476.301,73.758,476.191,73.574,476.002z"/>
			</g>
			<path fill="#98CA3E" d="M34.564,336.924c-2.577,0-4.904,0.138-6.938,0.354c-0.135-0.011-0.27-0.017-0.404-0.017
				c-10.601-0.002-20.15,32.697-1.14,53.604c0,0,39.193-26.152,78.996-26.25c-18.784-16.299-46.75-25.364-61.084-27.108
				C40.581,337.093,37.419,336.924,34.564,336.924z"/>
			<path fill="#231F20" d="M115.03,353.147c-21.923-19.023-53.396-28.79-69.202-30.714c-3.788-0.461-7.578-0.694-11.264-0.694
				c-2.576,0-5.106,0.114-7.538,0.339c-4.642,0.049-15.694,1.919-22.564,17.447c-7.187,16.242-7.002,42.434,10.385,61.556
				c2.971,3.269,7.086,4.97,11.242,4.97c2.914,0,5.846-0.835,8.422-2.554c0.337-0.224,36.017-23.611,70.605-23.696
				c6.331-0.016,11.987-3.957,14.195-9.891C121.518,363.977,119.812,357.296,115.03,353.147z M34.564,336.924
				c2.855,0,6.017,0.169,9.43,0.584c14.334,1.744,42.3,10.81,61.084,27.108c-39.803,0.098-78.996,26.25-78.996,26.25
				c-19.01-20.907-9.46-53.606,1.14-53.604c0.134,0,0.27,0.006,0.404,0.017C29.66,337.062,31.987,336.924,34.564,336.924z"/>
			<path fill="none" d="M326.772,470.543c-5.742-4.504-10.532-6.305-18.718-10.492h-0.001c0,0-8.935,9.698-9.985,10.91
				c-7.881,9.102-16.68,16.988-26.609,23.798c-0.438,0.3-0.884,0.589-1.324,0.885c-0.652,0.438-1.302,0.881-1.96,1.31
				c-0.624,0.405-1.256,0.797-1.885,1.193c-0.486,0.307-0.968,0.62-1.457,0.922c-1.126,0.692-2.26,1.372-3.403,2.037
				c1.683,0.549,3.425,1.097,5.223,1.637c1.798,0.539,3.654,1.072,5.565,1.593c9.454,2.575,19.388,4.057,29.176,4.057
				c15.708,0,31.043-3.818,43.444-13.051c-1.009-2.048-2.034-4.111-2.249-4.73C338.84,482.832,333.586,475.887,326.772,470.543z"/>
			<path fill="none" d="M55.8,477.162c0.248,0.686,0.512,1.361,0.785,2.033c-1.798-6.197-2.919-12.611-3.322-18.83
				C52.713,466.023,53.853,471.783,55.8,477.162z"/>
			<path fill="#93C740" d="M358.127,481.586c10.014-14.346,13.194-33.445,7.194-50.021c-2.809-7.76-7.594-14.103-13.548-19.213
				c-8.059-6.916-18.257-11.576-28.592-14.438c-10.003-2.771-20.499-4.092-30.987-4.092c-8.812,0-17.616,0.932-26.125,2.721
				c-5.461,1.148-10.852,2.625-16.15,4.375c-31.708,10.474-60.212,28.361-90.179,42.729c-18.693,8.963-38.56,17.086-59.449,18.629
				c-2.006,0.147-4.008,0.216-5.993,0.216c-20.989,0-39.943-7.575-39.943-7.575c-0.562,1.794-0.915,3.616-1.093,5.448
				c0.403,6.219,1.523,12.633,3.322,18.83c7.324,18.002,23.542,30.893,42.695,34.789c6.184,1.258,12.466,1.831,18.779,1.831
				c41.308,0,84.159-24.48,112.5-41.521c17.113-10.289,37.56-16.816,57.668-16.816c3.083,0,6.158,0.153,9.211,0.471
				c3.517,0.364,7.004,1.059,10.098,1.953c0.172,0.05,0.348,0.098,0.517,0.148h0.001c8.186,4.188,12.976,5.988,18.718,10.492
				c6.814,5.344,12.068,12.289,15.815,20.067c0.215,0.619,1.24,2.683,2.249,4.73C349.79,491.653,354.275,487.104,358.127,481.586z"
				/>
			<path fill="none" d="M351.774,412.352c-8.059-6.916-18.257-11.576-28.592-14.438c-10.003-2.771-20.499-4.092-30.987-4.092
				c-8.812,0-17.616,0.932-26.125,2.721c-5.461,1.148-10.852,2.625-16.15,4.375c-31.708,10.474-60.212,28.361-90.179,42.729
				c-18.693,8.963-38.56,17.086-59.449,18.629c-2.006,0.147-4.008,0.216-5.993,0.216c-20.989,0-39.943-7.575-39.943-7.575
				c-0.562,1.794-0.915,3.616-1.093,5.448c-0.55,5.658,0.589,11.418,2.537,16.797c0.248,0.686,0.512,1.361,0.785,2.033
				c7.324,18.002,23.542,30.893,42.695,34.789c6.184,1.258,12.466,1.831,18.779,1.831c41.308,0,84.159-24.48,112.5-41.521
				c17.113-10.289,37.56-16.816,57.668-16.816c3.083,0,6.158,0.153,9.211,0.471c3.517,0.364,7.004,1.059,10.098,1.953
				c0.172,0.05,0.348,0.098,0.517,0.148c0,0-0.049,0.053-0.132,0.144c1.302,0.216,2.814,0.551,4.534,1.06
				c0,0,10.852,6.028,13.843,8.712c3.751,3.222,7.231,6.729,10.405,10.522c2.208,3.227,4.188,6.6,5.885,10.122
				c0.215,0.619,1.24,2.683,2.249,4.73l0,0c4.953-3.688,9.439-8.236,13.291-13.755c10.014-14.346,13.194-33.445,7.194-50.021
				C362.513,423.805,357.728,417.462,351.774,412.352z"/>
			<path fill="#80B041" d="M336.703,480.488c-3.174-3.793-6.653-7.301-10.405-10.522c-2.991-2.684-13.843-8.712-13.843-8.712
				c-1.72-0.509-3.232-0.844-4.534-1.06c-1.096,1.19-8.876,9.641-9.853,10.767c-7.881,9.102-16.68,16.988-26.609,23.798
				c-0.438,0.3-0.884,0.589-1.324,0.885c-0.652,0.438-1.302,0.881-1.96,1.31c-0.624,0.405-1.256,0.797-1.885,1.193
				c-0.486,0.307-0.968,0.62-1.457,0.922c-1.126,0.692-2.26,1.372-3.403,2.037c1.683,0.549,3.425,1.097,5.223,1.637
				c1.798,0.539,3.654,1.072,5.565,1.593c9.454,2.575,19.388,4.057,29.176,4.057c15.708,0,31.043-3.818,43.444-13.051
				c-1.009-2.048-2.034-4.111-2.249-4.73C340.891,487.088,338.911,483.715,336.703,480.488z"/>
			<path fill="#231F20" d="M379.6,426.396c-3.544-9.792-9.579-18.394-17.937-25.567c-9.147-7.852-20.731-13.756-34.429-17.55
				c-11.124-3.08-22.913-4.643-35.04-4.643c-9.795,0-19.636,1.025-29.249,3.047c-5.854,1.23-11.839,2.851-17.789,4.816
				c-22.739,7.511-43.701,18.522-63.973,29.171c-9.173,4.818-18.658,9.802-28.008,14.284c-16.08,7.709-35.07,15.779-54.003,17.178
				c-1.568,0.115-3.208,0.174-4.874,0.174c-17.399,0-33.731-6.267-34.326-6.497c-1.818-0.734-3.732-1.099-5.645-1.099
				c-2.217,0-4.432,0.49-6.488,1.461c-3.835,1.811-6.706,5.155-7.975,9.202c-3.053,9.738-2.496,20.489,1.654,31.957
				c4.268,11.789,11.665,22.338,21.393,30.505c9.508,7.983,21.036,13.525,33.339,16.028c6.964,1.417,14.301,2.136,21.806,2.136
				c20.443,0,42.375-5.096,67.05-15.579c19.523-8.295,37.143-18.413,53.274-28.112c11.137-6.695,23.276-11.259,35.255-13.348
				c-3.412,2.937-6.99,5.684-10.768,8.274c-0.206,0.142-0.413,0.277-0.618,0.414c-0.194,0.129-0.389,0.257-0.582,0.388l-0.5,0.336
				c-0.423,0.285-0.846,0.57-1.273,0.849c-0.384,0.25-0.771,0.491-1.157,0.733l-0.55,0.346c-0.205,0.129-0.408,0.259-0.611,0.389
				c-0.235,0.15-0.47,0.301-0.708,0.447c-1.021,0.629-2.057,1.249-3.08,1.845c-5.172,3.01-8.095,8.777-7.462,14.729
				s4.701,10.976,10.391,12.832c1.851,0.604,3.724,1.19,5.566,1.743c1.971,0.592,3.969,1.164,5.941,1.701
				c11.184,3.046,22.343,4.59,33.167,4.59c13.762,0,26.433-2.501,37.659-7.435c12.897-5.668,23.504-14.37,31.527-25.864
				c6.312-9.041,10.519-19.627,12.168-30.612C384.452,448.301,383.364,436.796,379.6,426.396z M358.127,481.586
				c-3.852,5.519-8.338,10.067-13.291,13.755c-12.4,9.232-27.736,13.051-43.444,13.051c-9.789,0-19.722-1.481-29.176-4.057
				c-1.911-0.521-3.767-1.054-5.565-1.593c-1.798-0.54-3.54-1.088-5.223-1.637c1.143-0.665,2.277-1.345,3.403-2.037
				c0.489-0.302,0.971-0.615,1.457-0.922c0.629-0.396,1.262-0.788,1.885-1.193c0.659-0.429,1.308-0.871,1.96-1.31
				c0.44-0.296,0.886-0.585,1.324-0.885c9.929-6.81,18.729-14.696,26.609-23.798c0.976-1.126,8.757-9.576,9.853-10.767
				c0.083-0.091,0.132-0.144,0.132-0.144c-0.169-0.051-0.345-0.099-0.517-0.148c-3.094-0.895-6.581-1.589-10.098-1.953
				c-3.054-0.317-6.128-0.471-9.211-0.471c-20.108,0-40.555,6.527-57.668,16.816c-28.341,17.04-71.191,41.521-112.5,41.521
				c-6.313,0-12.595-0.573-18.779-1.831c-19.152-3.896-35.371-16.787-42.695-34.789c-0.273-0.672-0.538-1.348-0.785-2.033
				c-1.947-5.379-3.086-11.139-2.537-16.797c0.178-1.832,0.531-3.654,1.093-5.448c0,0,18.954,7.575,39.943,7.575
				c1.984,0,3.987-0.068,5.993-0.216c20.889-1.543,40.755-9.666,59.449-18.629c29.967-14.368,58.472-32.256,90.179-42.729
				c5.298-1.75,10.689-3.227,16.15-4.375c8.509-1.789,17.313-2.721,26.125-2.721c10.488,0,20.984,1.321,30.987,4.092
				c10.334,2.861,20.533,7.521,28.592,14.438c5.954,5.11,10.739,11.453,13.548,19.213
				C371.321,448.141,368.142,467.24,358.127,481.586z"/>
		</g>
	</g>
	<g id="PythonMorsels_2_">
		<path fill="#231F20" d="M478.172,135.047h61.236c41.891,0,62.837,17.28,62.837,51.831c0,34.422-20.946,51.631-62.837,51.631H524.4
			v36.623h-46.228V135.047z M556.418,186.878c0-9.205-5.803-13.807-17.41-13.807H524.4v27.415h14.608
			C550.616,200.486,556.418,195.953,556.418,186.878z"/>
		<path fill="#231F20" d="M696.305,275.132h-45.828v-47.829l-53.232-92.256h52.232l24.015,53.031l24.014-53.031h52.232
			l-53.433,92.256V275.132z"/>
		<path fill="#231F20" d="M751.136,135.047H872.41v40.425h-37.623v99.66h-46.028v-99.66h-37.622V135.047z"/>
		<path fill="#231F20" d="M969.666,135.047h46.028v140.085h-46.028v-49.83h-38.021v49.83h-46.229V135.047h46.229v49.831h38.021
			V135.047z"/>
		<path fill="#231F20" d="M1050.912,257.621c-13.207-13.809-19.811-31.318-19.811-52.531s6.604-38.723,19.811-52.532
			c13.208-13.809,31.885-20.712,56.035-20.712c24.145,0,42.825,6.903,56.033,20.712c13.208,13.81,19.811,31.319,19.811,52.532
			s-6.603,38.723-19.811,52.531s-31.889,20.713-56.033,20.713C1082.796,278.334,1064.12,271.43,1050.912,257.621z M1127.859,228.104
			c5.003-5.604,7.504-13.273,7.504-23.014c0-9.737-2.501-17.411-7.504-23.014c-5.004-5.604-11.977-8.404-20.912-8.404
			c-8.941,0-15.91,2.801-20.914,8.404c-5.002,5.603-7.504,13.276-7.504,23.014c0,9.74,2.502,17.41,7.504,23.014
			c5.004,5.603,11.973,8.404,20.914,8.404C1115.882,236.508,1122.855,233.706,1127.859,228.104z"/>
		<path fill="#231F20" d="M1244.429,275.132h-46.229V135.047h39.023l47.429,65.84c-0.8-6.67-1.2-14.675-1.2-24.015v-41.825h46.227
			v140.085h-39.022l-47.429-65.64c0.801,6.673,1.201,14.543,1.201,23.614V275.132z"/>
		<path fill="#231F20" d="M582.238,325.488h36.221v123.686h-39.755v-56.543l-20.319,31.452h-21.38l-20.319-31.628v56.719h-39.756
			V325.488h36.223l34.455,54.069L582.238,325.488z"/>
		<path fill="#231F20" d="M649.557,433.713c-11.662-12.191-17.493-27.652-17.493-46.381c0-18.73,5.831-34.19,17.493-46.383
			s28.152-18.288,49.474-18.288c21.318,0,37.812,6.096,49.473,18.288c11.663,12.192,17.493,27.652,17.493,46.383
			c0,18.729-5.83,34.189-17.493,46.381C736.842,445.904,720.349,452,699.031,452C677.709,452,661.219,445.904,649.557,433.713z
			 M717.495,407.651c4.417-4.948,6.626-11.72,6.626-20.319c0-8.598-2.209-15.373-6.626-20.32s-10.573-7.422-18.464-7.422
			c-7.894,0-14.048,2.475-18.465,7.422s-6.625,11.723-6.625,20.32c0,8.6,2.208,15.371,6.625,20.319
			c4.417,4.946,10.571,7.421,18.465,7.421C706.921,415.072,713.078,412.598,717.495,407.651z"/>
		<path fill="#231F20" d="M820.418,449.174h-40.815V325.488h57.424c7.068,0,13.545,0.708,19.437,2.121
			c5.89,1.413,11.425,3.711,16.609,6.891c5.183,3.182,9.246,7.717,12.192,13.605c2.941,5.892,4.416,12.898,4.416,21.026
			c0,17.553-7.067,29.86-21.202,36.929l31.804,43.113h-44.879l-25.443-36.576h-9.542V449.174z M820.418,358.707v23.323h15.726
			c3.887,0,6.949-1.06,9.188-3.181c2.236-2.12,3.356-4.947,3.356-8.48c0-3.534-1.12-6.36-3.356-8.482
			c-2.239-2.119-5.302-3.18-9.188-3.18H820.418z"/>
		<path fill="#231F20" d="M904.17,361.004c0-12.485,4.563-21.997,13.694-28.536c9.127-6.537,20.761-9.807,34.896-9.807
			c17.551,0,32.688,3.419,45.409,10.249v35.338c-12.721-8.128-26.387-12.073-40.992-11.838c-7.305,0-10.954,1.827-10.954,5.477
			c0,1.652,1.118,3.153,3.356,4.507c2.236,1.355,5.094,2.562,8.57,3.622c3.473,1.06,7.36,2.209,11.661,3.445
			c4.298,1.236,8.597,2.857,12.899,4.859c4.297,2.004,8.185,4.359,11.661,7.067c3.473,2.711,6.331,6.361,8.569,10.954
			c2.236,4.595,3.357,9.779,3.357,15.55c0,26.74-17.316,40.108-51.947,40.108c-18.848,0-35.223-3.887-49.121-11.662v-36.929
			c14.723,9.661,29.742,14.489,45.057,14.489c5.183,0,8.805-0.47,10.867-1.413c2.059-0.941,3.092-2.474,3.092-4.594
			c0-1.884-1.475-3.622-4.418-5.213c-2.945-1.591-6.656-2.942-11.131-4.063c-4.479-1.118-9.307-2.738-14.489-4.859
			c-5.185-2.121-10.013-4.532-14.488-7.244c-4.478-2.708-8.188-6.626-11.132-11.751C905.642,373.637,904.17,367.718,904.17,361.004z
			"/>
		<path fill="#231F20" d="M1019.724,325.488h93.648v32.159h-52.832v14.312h46.471v30.037h-46.471v14.666h53.891v32.512h-94.707
			V325.488z"/>
		<path fill="#231F20" d="M1129.626,325.488h40.816v87.993h52.83v35.692h-93.646V325.488z"/>
		<path fill="#231F20" d="M1231.399,361.004c0-12.485,4.563-21.997,13.694-28.536c9.127-6.537,20.761-9.807,34.896-9.807
			c17.551,0,32.688,3.419,45.409,10.249v35.338c-12.721-8.128-26.387-12.073-40.992-11.838c-7.305,0-10.954,1.827-10.954,5.477
			c0,1.652,1.118,3.153,3.356,4.507c2.237,1.355,5.094,2.562,8.57,3.622c3.473,1.06,7.36,2.209,11.661,3.445
			c4.298,1.236,8.597,2.857,12.899,4.859c4.297,2.004,8.185,4.359,11.661,7.067c3.473,2.711,6.331,6.361,8.569,10.954
			c2.236,4.595,3.357,9.779,3.357,15.55c0,26.74-17.316,40.108-51.947,40.108c-18.848,0-35.223-3.887-49.121-11.662v-36.929
			c14.723,9.661,29.742,14.489,45.057,14.489c5.182,0,8.805-0.47,10.867-1.413c2.059-0.941,3.092-2.474,3.092-4.594
			c0-1.884-1.475-3.622-4.418-5.213c-2.945-1.591-6.656-2.942-11.131-4.063c-4.479-1.118-9.307-2.738-14.489-4.859
			c-5.185-2.121-10.013-4.532-14.488-7.244c-4.478-2.708-8.188-6.626-11.132-11.751
			C1232.871,373.637,1231.399,367.718,1231.399,361.004z"/>
	</g>
</g>
</svg>
